<svg width="24" height="24" viewBox="0 0 24 24" fill="none" xmlns="http://www.w3.org/2000/svg">
<path d="M23.0768 0H1.84219C1.33152 0 0.918945 0.412575 0.918945 0.923244V22.1579C0.918945 22.6685 1.33152 23.0811 1.84219 23.0811H23.0768C23.5875 23.0811 24 22.6685 24 22.1579V0.923244C24 0.412575 23.5875 0 23.0768 0ZM22.1536 21.2346H16.842V14.1429H19.8426L20.2926 10.6606H16.842V8.43614C16.842 7.42634 17.1219 6.73968 18.5673 6.73968H20.4109V3.62373C20.0907 3.58046 18.9972 3.48525 17.722 3.48525C15.0619 3.48525 13.2414 5.10958 13.2414 8.08993V10.6577H10.2351V14.1401H13.2443V21.2346H2.76543V1.84649H22.1536V21.2346Z" fill="#5CA720"/>
</svg>
