<svg width="24" height="24" viewBox="0 0 24 24" fill="none" xmlns="http://www.w3.org/2000/svg">
<path d="M11.5299 5.62425C8.25524 5.62425 5.61245 8.26703 5.61245 11.5417C5.61245 14.8163 8.25524 17.4591 11.5299 17.4591C14.8045 17.4591 17.4473 14.8163 17.4473 11.5417C17.4473 8.26703 14.8045 5.62425 11.5299 5.62425ZM11.5299 15.3876C9.41218 15.3876 7.68398 13.6594 7.68398 11.5417C7.68398 9.42397 9.41218 7.69578 11.5299 7.69578C13.6476 7.69578 15.3758 9.42397 15.3758 11.5417C15.3758 13.6594 13.6476 15.3876 11.5299 15.3876ZM17.6896 4.0028C16.9251 4.0028 16.3077 4.62022 16.3077 5.38478C16.3077 6.14934 16.9251 6.76676 17.6896 6.76676C18.4542 6.76676 19.0716 6.15223 19.0716 5.38478C19.0718 5.20323 19.0363 5.02342 18.9669 4.85565C18.8975 4.68788 18.7957 4.53544 18.6674 4.40706C18.539 4.27869 18.3865 4.1769 18.2188 4.10753C18.051 4.03816 17.8712 4.00257 17.6896 4.0028ZM23.0646 11.5417C23.0646 9.94907 23.0791 8.3709 22.9896 6.78119C22.9002 4.9347 22.479 3.29594 21.1287 1.9457C19.7756 0.592567 18.1397 0.174222 16.2932 0.0847828C14.7006 -0.00465643 13.1225 0.0097693 11.5328 0.0097693C9.94016 0.0097693 8.36199 -0.00465643 6.77228 0.0847828C4.92579 0.174222 3.28703 0.595452 1.93679 1.9457C0.583656 3.29883 0.165311 4.9347 0.0758717 6.78119C-0.0135676 8.37378 0.000858167 9.95195 0.000858167 11.5417C0.000858167 13.1314 -0.0135676 14.7124 0.0758717 16.3021C0.165311 18.1486 0.586541 19.7874 1.93679 21.1376C3.28992 22.4908 4.92579 22.9091 6.77228 22.9985C8.36487 23.088 9.94304 23.0736 11.5328 23.0736C13.1253 23.0736 14.7035 23.088 16.2932 22.9985C18.1397 22.9091 19.7785 22.4879 21.1287 21.1376C22.4819 19.7845 22.9002 18.1486 22.9896 16.3021C23.082 14.7124 23.0646 13.1343 23.0646 11.5417ZM20.5257 18.3448C20.3151 18.8699 20.0612 19.2623 19.6544 19.6662C19.2476 20.073 18.8581 20.3269 18.333 20.5375C16.8154 21.1405 13.2119 21.0049 11.5299 21.0049C9.84783 21.0049 6.24141 21.1405 4.72383 20.5404C4.19873 20.3298 3.80636 20.0759 3.40244 19.6691C2.99563 19.2623 2.74174 18.8728 2.53112 18.3477C1.93102 16.8272 2.06662 13.2237 2.06662 11.5417C2.06662 9.85963 1.93102 6.25321 2.53112 4.73562C2.74174 4.21053 2.99563 3.81815 3.40244 3.41423C3.80924 3.01031 4.19873 2.75354 4.72383 2.54292C6.24141 1.94281 9.84783 2.07841 11.5299 2.07841C13.2119 2.07841 16.8183 1.94281 18.3359 2.54292C18.861 2.75354 19.2534 3.00743 19.6573 3.41423C20.0641 3.82104 20.318 4.21053 20.5286 4.73562C21.1287 6.25321 20.9931 9.85963 20.9931 11.5417C20.9931 13.2237 21.1287 16.8272 20.5257 18.3448Z" fill="#5CA720"/>
</svg>
