<svg width="30" height="23" viewBox="0 0 30 23" fill="none" xmlns="http://www.w3.org/2000/svg">
<path d="M5.39399 22.9491V21.4226C5.39399 20.8373 5.03772 20.4558 4.42706 20.4558C4.12178 20.4558 3.79101 20.5576 3.562 20.8883C3.38398 20.6084 3.12958 20.4558 2.74793 20.4558C2.49342 20.4558 2.23914 20.5321 2.03551 20.8119V20.5067H1.50122V22.9491H2.03551V21.6006C2.03551 21.1682 2.26452 20.9646 2.62079 20.9646C2.97683 20.9646 3.15508 21.1936 3.15508 21.6006V22.9491H3.68937V21.6006C3.68937 21.1682 3.94365 20.9646 4.27442 20.9646C4.63069 20.9646 4.80871 21.1936 4.80871 21.6006V22.9491H5.39399ZM13.3064 20.5067H12.4415V19.7689H11.9072V20.5067H11.4238V20.99H11.9071V22.1095C11.9071 22.6693 12.1361 23 12.7468 23C12.9758 23 13.2301 22.9237 13.4083 22.822L13.2556 22.3639C13.1029 22.4657 12.9249 22.4912 12.7977 22.4912C12.5433 22.4912 12.4415 22.3386 12.4415 22.084V20.99H13.3064V20.5067ZM17.8353 20.4557C17.53 20.4557 17.3265 20.6084 17.1992 20.8119V20.5067H16.6649V22.9491H17.1992V21.5753C17.1992 21.1682 17.3772 20.9392 17.708 20.9392C17.8098 20.9392 17.937 20.9647 18.0388 20.9901L18.1914 20.4813C18.0897 20.4558 17.937 20.4558 17.8353 20.4558V20.4557ZM10.9913 20.7102C10.7368 20.5321 10.3806 20.4558 9.99896 20.4558C9.38841 20.4558 8.98138 20.7611 8.98138 21.2445C8.98138 21.6516 9.28665 21.8805 9.82094 21.9569L10.0753 21.9824C10.3552 22.0332 10.5079 22.1095 10.5079 22.2368C10.5079 22.4148 10.3043 22.5421 9.94808 22.5421C9.59193 22.5421 9.31203 22.4148 9.1339 22.2877L8.8795 22.6947C9.1594 22.8982 9.54105 23 9.92258 23C10.635 23 11.0422 22.6693 11.0422 22.2113C11.0422 21.7788 10.7114 21.5498 10.2025 21.4735L9.94808 21.448C9.71907 21.4225 9.54105 21.3717 9.54105 21.2191C9.54105 21.041 9.71907 20.9392 9.99896 20.9392C10.3043 20.9392 10.6096 21.0663 10.7623 21.1427L10.9913 20.7102ZM25.1882 20.4558C24.8828 20.4558 24.6793 20.6084 24.552 20.8119V20.5067H24.0177V22.9491H24.552V21.5753C24.552 21.1682 24.7301 20.9392 25.0608 20.9392C25.1627 20.9392 25.2899 20.9647 25.3917 20.9901L25.5443 20.4813C25.4426 20.4558 25.2899 20.4558 25.1882 20.4558ZM18.3696 21.7279C18.3696 22.4657 18.8783 23 19.6671 23C20.0233 23 20.2777 22.9237 20.5321 22.7202L20.2777 22.2877C20.0742 22.4403 19.8707 22.5166 19.6417 22.5166C19.2091 22.5166 18.9038 22.2113 18.9038 21.7279C18.9038 21.27 19.2091 20.9646 19.6417 20.9392C19.8707 20.9392 20.0742 21.0155 20.2777 21.1682L20.5321 20.7357C20.2777 20.5321 20.0233 20.4558 19.6671 20.4558C18.8783 20.4558 18.3696 20.9901 18.3696 21.7279ZM23.3054 21.7279V20.5067H22.7711V20.8119C22.593 20.5831 22.3386 20.4558 22.0078 20.4558C21.3209 20.4558 20.7866 20.9901 20.7866 21.7279C20.7866 22.4657 21.3209 23 22.0078 23C22.364 23 22.6185 22.8728 22.7711 22.6438V22.9491H23.3054V21.7279ZM21.3463 21.7279C21.3463 21.2954 21.6262 20.9392 22.0841 20.9392C22.5166 20.9392 22.822 21.27 22.822 21.7279C22.822 22.1604 22.5166 22.5166 22.0841 22.5166C21.6262 22.4911 21.3463 22.1604 21.3463 21.7279ZM14.9603 20.4558C14.2479 20.4558 13.739 20.9646 13.739 21.7279C13.739 22.4912 14.2478 23 14.9857 23C15.3418 23 15.6981 22.8982 15.978 22.6693L15.7235 22.2877C15.52 22.4403 15.2656 22.5421 15.0112 22.5421C14.6804 22.5421 14.3496 22.3894 14.2733 21.9568H16.0798V21.7534C16.1053 20.9646 15.6472 20.4558 14.9602 20.4558H14.9603ZM14.9603 20.9137C15.291 20.9137 15.5201 21.1173 15.5709 21.499H14.2988C14.3496 21.1682 14.5787 20.9137 14.9603 20.9137ZM28.2158 21.7279V19.5399H27.6815V20.8119C27.5033 20.5831 27.2489 20.4558 26.9182 20.4558C26.2313 20.4558 25.697 20.9901 25.697 21.7279C25.697 22.4657 26.2313 23 26.9182 23C27.2744 23 27.5288 22.8728 27.6815 22.6438V22.9491H28.2158V21.7279ZM26.2567 21.7279C26.2567 21.2954 26.5365 20.9392 26.9946 20.9392C27.4271 20.9392 27.7324 21.27 27.7324 21.7279C27.7324 22.1604 27.4271 22.5166 26.9946 22.5166C26.5365 22.4911 26.2567 22.1604 26.2567 21.7279ZM8.39609 21.7279V20.5067H7.8618V20.8119C7.68367 20.5831 7.42927 20.4558 7.0985 20.4558C6.41158 20.4558 5.87729 20.9901 5.87729 21.7279C5.87729 22.4657 6.41158 23 7.0985 23C7.45477 23 7.70917 22.8728 7.8618 22.6438V22.9491H8.39609V21.7279ZM6.41158 21.7279C6.41158 21.2954 6.69147 20.9392 7.14938 20.9392C7.58191 20.9392 7.8873 21.27 7.8873 21.7279C7.8873 22.1604 7.58191 22.5166 7.14938 22.5166C6.69147 22.4911 6.41158 22.1604 6.41158 21.7279Z" fill="black"/>
<path d="M10.8132 1.95905H18.8276V16.3595H10.8132V1.95905Z" fill="#FF5F00"/>
<path d="M11.3219 9.15928C11.3219 6.23344 12.6958 3.63826 14.8074 1.95902C13.2556 0.737805 11.2966 0 9.1594 0C4.09617 0 0 4.09617 0 9.15928C0 14.2223 4.09617 18.3186 9.15928 18.3186C11.2964 18.3186 13.2555 17.5808 14.8074 16.3594C12.6958 14.7057 11.3219 12.0851 11.3219 9.15928Z" fill="#EB001B"/>
<path d="M29.6405 9.15928C29.6405 14.2223 25.5443 18.3186 20.4812 18.3186C18.344 18.3186 16.385 17.5808 14.833 16.3594C16.9702 14.6803 18.3186 12.0851 18.3186 9.15928C18.3186 6.23344 16.9447 3.63826 14.833 1.95902C16.3849 0.737805 18.344 0 20.4812 0C25.5443 0 29.6406 4.12167 29.6406 9.15928H29.6405Z" fill="#F79E1B"/>
</svg>
