<svg width="15" height="19" viewBox="0 0 15 19" fill="none" xmlns="http://www.w3.org/2000/svg">
<path d="M12.7938 1.99888C11.9863 1.07853 10.5267 0.68396 8.65943 0.68396H3.24006C3.05531 0.683967 2.87662 0.749879 2.73612 0.869847C2.59562 0.989814 2.50252 1.15597 2.47357 1.33843L0.217037 15.6499C0.172185 15.9321 0.39071 16.1877 0.676746 16.1877H4.02248L4.86274 10.858L4.83666 11.0249C4.89652 10.6482 5.21872 10.3703 5.60026 10.3703H7.19014C10.3135 10.3703 12.7591 9.10173 13.4735 5.43188C13.4947 5.32335 13.5131 5.21771 13.5289 5.1145C13.4388 5.06675 13.4388 5.06675 13.5289 5.1145C13.7417 3.75809 13.5275 2.83479 12.7938 1.99888Z" fill="#27346A"/>
<path d="M6.14295 4.62587C6.23442 4.58232 6.33446 4.55975 6.43576 4.55981H10.6845C11.1876 4.55981 11.6568 4.59255 12.0857 4.66157C12.2057 4.6807 12.325 4.70355 12.4436 4.73007C12.6117 4.76715 12.7778 4.81254 12.9414 4.86607C13.1522 4.93648 13.3485 5.01848 13.529 5.1145C13.7417 3.75757 13.5275 2.83479 12.7938 1.99888C11.9859 1.07853 10.5267 0.68396 8.65944 0.68396H3.23959C2.858 0.68396 2.53337 0.961767 2.47357 1.33843L0.217038 15.6494C0.172185 15.932 0.39071 16.1873 0.676282 16.1873H4.02248L5.76576 5.13235C5.7829 5.02369 5.82618 4.92082 5.89189 4.83259C5.95759 4.74437 6.04375 4.67342 6.14295 4.62587Z" fill="#27346A"/>
<path d="M13.4736 5.43189C12.7592 9.10121 10.3136 10.3703 7.19022 10.3703H5.59987C5.21834 10.3703 4.89608 10.6482 4.8368 11.0249L3.79146 17.6517C3.7524 17.8987 3.9434 18.1225 4.19328 18.1225H7.01365C7.17521 18.1224 7.33145 18.0647 7.45428 17.9598C7.57711 17.8548 7.65846 17.7095 7.68371 17.5499L7.71118 17.4062L8.24274 14.0373L8.27699 13.8511C8.30224 13.6915 8.38358 13.5462 8.5064 13.4413C8.62922 13.3363 8.78545 13.2786 8.947 13.2786H9.3691C12.1012 13.2786 14.2405 12.1686 14.8657 8.95848C15.1266 7.61697 14.9916 6.49693 14.3013 5.71022C14.0919 5.47193 13.8319 5.27514 13.529 5.1145C13.5126 5.21823 13.4948 5.32335 13.4736 5.43189Z" fill="#2790C3"/>
<path d="M12.7813 4.81641C12.6699 4.78388 12.5575 4.75509 12.4442 4.73007C12.3255 4.70398 12.2062 4.68129 12.0862 4.66203C11.6569 4.59255 11.188 4.55976 10.6844 4.55976H6.43626C6.33487 4.55953 6.23476 4.58229 6.14344 4.62634C6.04413 4.67374 5.95788 4.74464 5.89215 4.83289C5.82641 4.92114 5.78318 5.02409 5.76619 5.13281L4.86324 10.858L4.83716 11.0249C4.89656 10.6482 5.21875 10.3703 5.60034 10.3703H7.19069C10.314 10.3703 12.7596 9.10173 13.474 5.43189C13.4952 5.32335 13.5131 5.21817 13.5295 5.1145C13.3486 5.019 13.1528 4.93648 12.9419 4.86654C12.8887 4.8489 12.8351 4.83219 12.7813 4.81641Z" fill="#1F264F"/>
</svg>
