<svg width="31" height="11" viewBox="0 0 31 11" fill="none" xmlns="http://www.w3.org/2000/svg">
<path d="M16.127 3.58567C16.1101 4.92035 17.3164 5.66511 18.2252 6.10795C19.1589 6.56227 19.4725 6.85364 19.4688 7.25998C19.4618 7.88177 18.724 8.15621 18.0336 8.16688C16.8291 8.18554 16.1287 7.84167 15.5719 7.58159L15.138 9.61201C15.6967 9.86941 16.731 10.0939 17.8037 10.1038C20.3216 10.1038 21.9688 8.86087 21.9777 6.93384C21.9876 4.48817 18.5949 4.3528 18.6181 3.25965C18.6261 2.92818 18.9424 2.57446 19.6354 2.48453C19.9785 2.43909 20.9255 2.40433 21.9992 2.89874L22.4206 0.934278C21.8432 0.72404 21.1011 0.522725 20.1771 0.522725C17.8073 0.522725 16.1404 1.78253 16.127 3.58567ZM26.4698 0.691936C26.01 0.691936 25.6226 0.960123 25.4497 1.37168L21.853 9.95947H24.3691L24.8697 8.57576H27.9443L28.2347 9.95947H30.4523L28.5171 0.691936H26.4698ZM26.8218 3.19544L27.5479 6.6755H25.5593L26.8218 3.19544ZM13.0764 0.692052L11.0932 9.95935H13.4908L15.4731 0.69182H13.0764V0.692052ZM9.52962 0.69182L7.03411 6.99979L6.02464 1.63639C5.90619 1.03766 5.43843 0.691936 4.91898 0.691936H0.839608L0.782471 0.96105C1.61995 1.14278 2.57147 1.43588 3.14794 1.7495C3.50074 1.94108 3.60134 2.10855 3.71723 2.5638L5.6292 9.95947H8.16284L12.0473 0.691936H9.52962" fill="url(#paint0_linear_54_660)"/>
<defs>
<linearGradient id="paint0_linear_54_660" x1="14.4229" y1="10.296" x2="14.7002" y2="0.456092" gradientUnits="userSpaceOnUse">
<stop stop-color="#222357"/>
<stop offset="1" stop-color="#254AA5"/>
</linearGradient>
</defs>
</svg>
